<mxfile host="app.diagrams.net" modified="2024-02-29T20:26:47.567Z" agent="Mozilla/5.0 (Windows NT 10.0; Win64; x64) AppleWebKit/537.36 (KHTML, like Gecko) Chrome/122.0.0.0 Safari/537.36" etag="pBjgvq8qU2F0hk8bBQ0c" version="24.0.0" type="github">
  <diagram name="Page-1" id="xqtU39qztXYnOmMLmJzM">
    <mxGraphModel dx="600" dy="298" grid="1" gridSize="10" guides="1" tooltips="1" connect="1" arrows="1" fold="1" page="1" pageScale="1" pageWidth="827" pageHeight="1169" math="0" shadow="0">
      <root>
        <mxCell id="0" />
        <mxCell id="1" parent="0" />
        <mxCell id="ZV4TPQaU9PIEeKWRJxBf-1" value="Pool" style="swimlane;html=1;childLayout=stackLayout;resizeParent=1;resizeParentMax=0;horizontal=0;startSize=20;horizontalStack=0;whiteSpace=wrap;" vertex="1" parent="1">
          <mxGeometry x="40" y="40" width="680" height="320" as="geometry" />
        </mxCell>
        <mxCell id="ZV4TPQaU9PIEeKWRJxBf-2" value="Usuário padrão" style="swimlane;html=1;startSize=20;horizontal=0;" vertex="1" parent="ZV4TPQaU9PIEeKWRJxBf-1">
          <mxGeometry x="20" width="660" height="320" as="geometry" />
        </mxCell>
        <mxCell id="ZV4TPQaU9PIEeKWRJxBf-11" style="edgeStyle=orthogonalEdgeStyle;rounded=0;orthogonalLoop=1;jettySize=auto;html=1;exitX=0.5;exitY=0;exitDx=0;exitDy=0;exitPerimeter=0;" edge="1" parent="ZV4TPQaU9PIEeKWRJxBf-2" source="ZV4TPQaU9PIEeKWRJxBf-7" target="ZV4TPQaU9PIEeKWRJxBf-10">
          <mxGeometry relative="1" as="geometry">
            <mxPoint x="80" y="130" as="sourcePoint" />
            <Array as="points">
              <mxPoint x="115" y="113" />
            </Array>
          </mxGeometry>
        </mxCell>
        <mxCell id="ZV4TPQaU9PIEeKWRJxBf-7" value="" style="points=[[0.25,0.25,0],[0.5,0,0],[0.75,0.25,0],[1,0.5,0],[0.75,0.75,0],[0.5,1,0],[0.25,0.75,0],[0,0.5,0]];shape=mxgraph.bpmn.gateway2;html=1;verticalLabelPosition=bottom;labelBackgroundColor=#ffffff;verticalAlign=top;align=center;perimeter=rhombusPerimeter;outlineConnect=0;outline=none;symbol=none;" vertex="1" parent="ZV4TPQaU9PIEeKWRJxBf-2">
          <mxGeometry x="90" y="130" width="50" height="50" as="geometry" />
        </mxCell>
        <mxCell id="ZV4TPQaU9PIEeKWRJxBf-18" value="" style="edgeStyle=orthogonalEdgeStyle;rounded=0;orthogonalLoop=1;jettySize=auto;html=1;entryX=0;entryY=0.5;entryDx=0;entryDy=0;entryPerimeter=0;" edge="1" parent="ZV4TPQaU9PIEeKWRJxBf-2" source="ZV4TPQaU9PIEeKWRJxBf-8" target="ZV4TPQaU9PIEeKWRJxBf-7">
          <mxGeometry relative="1" as="geometry" />
        </mxCell>
        <mxCell id="ZV4TPQaU9PIEeKWRJxBf-8" value="" style="points=[[0.145,0.145,0],[0.5,0,0],[0.855,0.145,0],[1,0.5,0],[0.855,0.855,0],[0.5,1,0],[0.145,0.855,0],[0,0.5,0]];shape=mxgraph.bpmn.event;html=1;verticalLabelPosition=bottom;labelBackgroundColor=#ffffff;verticalAlign=top;align=center;perimeter=ellipsePerimeter;outlineConnect=0;aspect=fixed;outline=standard;symbol=general;" vertex="1" parent="ZV4TPQaU9PIEeKWRJxBf-2">
          <mxGeometry x="40" y="140" width="30" height="30" as="geometry" />
        </mxCell>
        <mxCell id="ZV4TPQaU9PIEeKWRJxBf-9" value="Postar" style="text;html=1;align=center;verticalAlign=middle;resizable=0;points=[];autosize=1;strokeColor=none;fillColor=none;" vertex="1" parent="ZV4TPQaU9PIEeKWRJxBf-2">
          <mxGeometry x="130" y="140" width="60" height="30" as="geometry" />
        </mxCell>
        <mxCell id="ZV4TPQaU9PIEeKWRJxBf-10" value="Sim" style="text;html=1;align=center;verticalAlign=middle;resizable=0;points=[];autosize=1;strokeColor=none;fillColor=none;" vertex="1" parent="ZV4TPQaU9PIEeKWRJxBf-2">
          <mxGeometry x="180" y="97.5" width="40" height="30" as="geometry" />
        </mxCell>
        <mxCell id="ZV4TPQaU9PIEeKWRJxBf-13" style="edgeStyle=orthogonalEdgeStyle;rounded=0;orthogonalLoop=1;jettySize=auto;html=1;entryX=0.012;entryY=0.505;entryDx=0;entryDy=0;entryPerimeter=0;exitX=0.5;exitY=1;exitDx=0;exitDy=0;exitPerimeter=0;" edge="1" parent="ZV4TPQaU9PIEeKWRJxBf-2" source="ZV4TPQaU9PIEeKWRJxBf-7" target="ZV4TPQaU9PIEeKWRJxBf-12">
          <mxGeometry relative="1" as="geometry">
            <mxPoint x="120" y="140" as="sourcePoint" />
            <Array as="points" />
          </mxGeometry>
        </mxCell>
        <mxCell id="ZV4TPQaU9PIEeKWRJxBf-12" value="Não" style="text;html=1;align=center;verticalAlign=middle;resizable=0;points=[];autosize=1;strokeColor=none;fillColor=none;" vertex="1" parent="ZV4TPQaU9PIEeKWRJxBf-2">
          <mxGeometry x="175" y="190" width="50" height="30" as="geometry" />
        </mxCell>
        <mxCell id="ZV4TPQaU9PIEeKWRJxBf-19" value="" style="points=[[0.25,0.25,0],[0.5,0,0],[0.75,0.25,0],[1,0.5,0],[0.75,0.75,0],[0.5,1,0],[0.25,0.75,0],[0,0.5,0]];shape=mxgraph.bpmn.gateway2;html=1;verticalLabelPosition=bottom;labelBackgroundColor=#ffffff;verticalAlign=top;align=center;perimeter=rhombusPerimeter;outlineConnect=0;outline=none;symbol=none;" vertex="1" parent="ZV4TPQaU9PIEeKWRJxBf-2">
          <mxGeometry x="220" y="60" width="50" height="50" as="geometry" />
        </mxCell>
        <mxCell id="ZV4TPQaU9PIEeKWRJxBf-20" style="edgeStyle=orthogonalEdgeStyle;rounded=0;orthogonalLoop=1;jettySize=auto;html=1;exitX=0.5;exitY=0;exitDx=0;exitDy=0;exitPerimeter=0;" edge="1" target="ZV4TPQaU9PIEeKWRJxBf-21" parent="ZV4TPQaU9PIEeKWRJxBf-2">
          <mxGeometry relative="1" as="geometry">
            <mxPoint x="244" y="62.5" as="sourcePoint" />
            <Array as="points">
              <mxPoint x="244" y="45.5" />
            </Array>
          </mxGeometry>
        </mxCell>
        <mxCell id="ZV4TPQaU9PIEeKWRJxBf-21" value="Sim" style="text;html=1;align=center;verticalAlign=middle;resizable=0;points=[];autosize=1;strokeColor=none;fillColor=none;" vertex="1" parent="ZV4TPQaU9PIEeKWRJxBf-2">
          <mxGeometry x="309" y="30" width="40" height="30" as="geometry" />
        </mxCell>
        <mxCell id="ZV4TPQaU9PIEeKWRJxBf-22" value="Não" style="text;html=1;align=center;verticalAlign=middle;resizable=0;points=[];autosize=1;strokeColor=none;fillColor=none;" vertex="1" parent="ZV4TPQaU9PIEeKWRJxBf-2">
          <mxGeometry x="304" y="122.5" width="50" height="30" as="geometry" />
        </mxCell>
        <mxCell id="ZV4TPQaU9PIEeKWRJxBf-23" style="edgeStyle=orthogonalEdgeStyle;rounded=0;orthogonalLoop=1;jettySize=auto;html=1;entryX=0.012;entryY=0.505;entryDx=0;entryDy=0;entryPerimeter=0;exitX=0.5;exitY=1;exitDx=0;exitDy=0;exitPerimeter=0;" edge="1" target="ZV4TPQaU9PIEeKWRJxBf-22" parent="ZV4TPQaU9PIEeKWRJxBf-2">
          <mxGeometry relative="1" as="geometry">
            <mxPoint x="244" y="112.5" as="sourcePoint" />
            <Array as="points" />
          </mxGeometry>
        </mxCell>
      </root>
    </mxGraphModel>
  </diagram>
</mxfile>
